<svg id="Unilever_Logo-_blue" data-name="Unilever Logo- blue" xmlns="http://www.w3.org/2000/svg" width="51.933" height="57.452" viewBox="0 0 51.933 57.452">
  <g id="Group_30" data-name="Group 30" transform="translate(0 0)">
    <g id="Group_29" data-name="Group 29" transform="translate(0 0)">
      <g id="Group_3" data-name="Group 3" transform="translate(0 46.341)">
        <g id="Group_2" data-name="Group 2" transform="translate(0 0)">
          <g id="Group_1" data-name="Group 1">
            <path id="Path_1" data-name="Path 1" d="M137.324,344.7a2.091,2.091,0,0,0,1.819-1.114,11.045,11.045,0,0,1-.626-2.881c-.178-2.89.935-5.607,2.152-5.682.895-.054,1.61.791,1.691,2.161a10.464,10.464,0,0,1-1.578,6.4,2.128,2.128,0,0,0,1.755,1.355,1.176,1.176,0,0,0,.748-.267,2.935,2.935,0,0,1-.122-.865c0-2.086,1.341-3.844,2.5-3.844.924,0,1.46,1.22,1.46,2.026,0,.952-.805,1.728-2,2.475a1.424,1.424,0,0,0,.924.356c1.7,0,2.589-2.056,3.246-3.934.12-.356.332-.864.746-.864.716,0,1.016,4.709,2.2,4.709.506,0,.921-1.046.921-1.847,0-.6-.208-.656-.208-1.521,0-.954.509-1.754,1.194-1.754.419,0,.567.413.567.92,0,1.9-1.372,5.453-3.4,5.453-1.522,0-1.4-2.623-1.938-2.623-.6,0-1.434,2.651-4.381,2.651a1.887,1.887,0,0,1-1.4-.715,3.436,3.436,0,0,1-2,.687c-1.1,0-1.579-1.132-2.024-1.132-.538,0-1.132,1.16-2.922,1.16-1.431,0-1.667-1.9-2.175-1.9-.448,0-1.131,1.9-1.875,1.9-1.255,0-1.519-3.3-2.624-3.3-.863,0-3.594,3.353-4.334,3.279a.439.439,0,0,1-.393-.55c.042-.414.4-1.519.54-2.038.242-.906.462-1.9.585-2.217a.8.8,0,0,1,.719-.522c.134.011.177.261.217.465.15.738.359,1.489.6,1.489.418,0,1.8-2.651,2.6-2.651.986,0,1.1,4.173,2.445,4.173.449,0,.776-.536,1.072-1.194.031-1.105.331-2.681,1.222-2.681.626,0,.926,1.4.476,2.623C135.744,344.34,136.7,344.7,137.324,344.7Zm23.835-3.575c-.367,1.532-1.486,3.787-3.157,3.787-.387,0-1.073-.15-1.073-.538,0-.419,2.623-.475,2.623-2.475a1.856,1.856,0,0,0-1.7-1.788c-1.34,0-2.648,1.461-2.648,3.489a2.132,2.132,0,0,0,2.261,2.411c1.966,0,3.157-1.609,3.782-2.951.3.894.476,2.951,1.224,2.951.3,0,.507-.148.866-.952.892-2,1.757-4.293,2.951-4.293.444,0,.177.807,1.248.807a.871.871,0,0,0,.863-.9c0-.687-.623-1.221-1.579-1.221-2.8,0-3.394,4.2-3.842,4.2-.743,0-.507-3.369-1.043-3.369C161.46,340.286,161.223,340.857,161.159,341.121ZM141.4,337.986c-.052-.833-.254-1.21-.7-1.179-.593.034-.868,1.9-.746,3.865.078,1.279.267,1.478.446,1.465C140.721,342.118,141.508,339.83,141.4,337.986Zm-4.847-1.751a.871.871,0,0,0-.923-.8,1.185,1.185,0,0,0-1.043,1.338.875.875,0,0,0,.9.9A1.266,1.266,0,0,0,136.548,336.234Zm9.268,6.079c0-.507-.267-.923-.592-.923-.271,0-.9.3-.9,1.249a1.842,1.842,0,0,0,.389,1.255A1.546,1.546,0,0,0,145.816,342.314Zm11.651-1.01c.625,0,.8.742.654,1.19a1.912,1.912,0,0,1-1.519,1.1C156.425,343.149,156.335,341.3,157.467,341.3Zm-34.31-2.117a9.2,9.2,0,0,1-.4-1.33,1.559,1.559,0,0,1,.852-1.8c.534-.151.743.117.951.746a12.972,12.972,0,0,1,.208,3.991c-.116,2.443-1.338,5.394-4.378,5.333-2.623-.059-3.783-1.756-3.906-4.349a11.926,11.926,0,0,1,.54-4.17c.267-.923.506-1.253,1.338-1.433.657-.117.6.567.448,1.374a15.848,15.848,0,0,0-.356,4.678c.117,2.145,1.1,2.979,2.173,2.979,1.61.031,2.325-1.309,2.621-3.246A5.648,5.648,0,0,0,123.157,339.187Z" transform="translate(-116.467 -335.017)" fill="#2133c4"/>
          </g>
        </g>
      </g>
      <g id="Group_28" data-name="Group 28" transform="translate(4.599)">
        <g id="Group_4" data-name="Group 4" transform="translate(35.938 7.557)">
          <path id="Path_2" data-name="Path 2" d="M322.135,143.662c.208,1.5,2.484,3.526,3.1,3.48.413-.037.571-1.96.571-3.48,0-.87.048-1.549-.41-1.708A3.613,3.613,0,0,1,322.135,143.662Zm.13-.664c1.642,0,3.146-1.312,3.146-2.465a.963.963,0,0,0-.9-1.059.689.689,0,0,1,.158.507c0,.868-1.327,1.834-2.766,1.834a.6.6,0,0,0-.679.553C321.221,142.809,321.648,143,322.265,143Zm-.35-1.786a.683.683,0,0,1-.711-.349c-.142-.283-.094-.744-.363-.946a2.83,2.83,0,0,0,.776.076c.712,0,1.392-.488,1.913-.488a.408.408,0,0,1,.456.441C323.987,140.642,322.584,141.211,321.915,141.211Z" transform="translate(-320.841 -139.473)" fill="#2133c4"/>
        </g>
        <g id="Group_5" data-name="Group 5" transform="translate(0.318 18.068)">
          <path id="Path_3" data-name="Path 3" d="M142.582,196.093c.537,0,.428-3.287,1.3-3.287.2,0,.267.2.267.456,0,.745-.362,1.836-.362,2.436,0,.3.076.394.221.394.38,0,1.044-3.622,1.692-3.622.208,0,.3.208.3.413,0,.76-.964,2.942-.964,3.556,0,.094.03.174.109.174.4,0,1.187-1.706,1.439-2.561.143-.441.332-.681.507-.681.158,0,.3.173.3.539a13.454,13.454,0,0,1-1.485,4.206,10.574,10.574,0,0,0-1.375,3.382,1.676,1.676,0,0,0,.694,1.41c-1.012-.063-1.424-.158-1.8-.949-1.69,3.366,3.115,3.034,1.468,6.023-.3-.537-2.668-1.09-2.668-4.221,0-2.7,2.37-4.287,2.37-5.409a.72.72,0,0,0-.284-.583c-.521-.444-.538-.807-.948-.807-.3,0-.665.7-.285,1.311.127.2.237.331.237.523,0,.441-.7,1.628-1.184,1.628s-.871-1.218-.871-3.178c0-1.74.394-3.495.885-3.495.143,0,.189.095.189.223,0,.2-.062.614-.062,1.312C142.267,196.031,142.441,196.093,142.582,196.093Z" transform="translate(-141.255 -192.471)" fill="#2133c4"/>
        </g>
        <g id="Group_6" data-name="Group 6" transform="translate(4.822 18.639)">
          <path id="Path_4" data-name="Path 4" d="M164.817,203.032c.664,0,1.217-.493,1.217-1.58V199.84a2.782,2.782,0,0,1,.459-1.805,2.92,2.92,0,0,0-.047.634c0,1.361.759,2.294.759,3.606,0,.488-.144.757-.523.757-.362,0-.331-.332-.41-.332-.062,0-.157.2-.157.425a.853.853,0,0,0,.9.855,1.084,1.084,0,0,0,1.029-1.106c0-1.422-1.106-3-1.106-4.521a3.56,3.56,0,0,1,.318-1.457c0,3.147,2.672,5.441,2.672,6.752a.529.529,0,0,1-.554.54.517.517,0,0,1-.538-.508c0-.109-.017-.141-.064-.141a.809.809,0,0,0-.378.728,1.183,1.183,0,0,0,1.217,1.153A1.4,1.4,0,0,0,171,203.98c0-1.658-3.242-4.174-3.242-6.86a3.726,3.726,0,0,1,.411-1.771,5.435,5.435,0,0,0-2.735,4.694c0,1.361-.048,2.041-.743,2.041-.363,0-.458-.332-.584-.332-.1,0-.145.284-.145.365A.867.867,0,0,0,164.817,203.032Z" transform="translate(-163.962 -195.349)" fill="#2133c4"/>
        </g>
        <g id="Group_7" data-name="Group 7" transform="translate(29.535 7.918)">
          <path id="Path_5" data-name="Path 5" d="M292.1,143.906c.7,0,1.218-.315,1.218-.507,0-.063-.095-.11-.3-.11a8.448,8.448,0,0,1-1.393-.142c-.665-.11-1.171-.362-1.359-.362-.063,0-.1.031-.1.079C290.17,143.276,290.93,143.906,292.1,143.906Zm-3.448-2.009a7.02,7.02,0,0,0,2.245-.489.851.851,0,0,1,.41-.112c.554,0,.413.634.92.634.393,0,.9-.331,1.2-.331.47,0,1.152,1.486,1.152,2.18,0,.808-1.214,1.3-2.657,1.3a3.377,3.377,0,0,1-3.368-3.018A.173.173,0,0,1,288.654,141.9Z" transform="translate(-288.559 -141.297)" fill="#2133c4"/>
        </g>
        <g id="Group_8" data-name="Group 8" transform="translate(4.649 31.731)">
          <path id="Path_6" data-name="Path 6" d="M164.453,261.9a2.3,2.3,0,0,0-1.361,2.247,4.408,4.408,0,0,0,4.4,3.938,2.574,2.574,0,0,0,2.877-2.674c0-2.388-1.471-4.063-3.382-4.063a1.908,1.908,0,0,0-1.978,1.881,2.618,2.618,0,0,0,2.672,2.61,1.332,1.332,0,0,0,1.406-1.359,1.747,1.747,0,0,0-1.6-1.692.461.461,0,0,0-.49.487c0,.379.521.762,1.169.762a.874.874,0,0,0,.35-.064.375.375,0,0,1,.047.189c0,.362-.351.587-.886.587a1.551,1.551,0,0,1-1.583-1.552c0-.568.492-.981,1.2-.981a2.352,2.352,0,0,1,2.247,2.5,1.636,1.636,0,0,1-1.881,1.773C165.131,266.492,163.9,264.214,164.453,261.9Z" transform="translate(-163.092 -261.352)" fill="#2133c4"/>
        </g>
        <g id="Group_9" data-name="Group 9" transform="translate(9.804 35.651)">
          <path id="Path_7" data-name="Path 7" d="M202.111,283.852a.633.633,0,1,0,.632-.632A.636.636,0,0,0,202.111,283.852Zm1.224,3.16a7.424,7.424,0,0,0,.958-.064c.237,0,.253.143.253.24,0,.346-.776.775-2.151.775a1.4,1.4,0,0,1-1.44-.9,6.244,6.244,0,0,1-3.177.965c-3.241,0-4.063-1.409-5.075-1.865-.776-.348-1.961.331-3.62-1.519a4.029,4.029,0,0,0,.757.063c1.455,0,2.228-.711,2.228-1.851a3.518,3.518,0,0,0-.032-.438,3.13,3.13,0,0,1,1.694,2.273c.031.161.681.3,1.091.3a1.284,1.284,0,0,0,1.406-1.169,3.552,3.552,0,0,0,3.448-2.7,3.768,3.768,0,0,1,1.644,1.155,2.859,2.859,0,0,1,.949-.141,6.023,6.023,0,0,1,1.754.3c.031-.208.063-.462.382-.462.472,0,.346.524.5.824.079.157.478.252.478.57a.4.4,0,0,1-.414.41.744.744,0,0,1-.189-.03c-.314.109-.331,2.387-1.662,2.387a2.664,2.664,0,0,1-2.275-1.816.674.674,0,0,0-.57-.493c-.253,0-.394.048-.694.379a5.494,5.494,0,0,1-4.033,1.74c-.537,0-.964-.048-1.074-.048-.062,0-.062.014-.062.034,0,.109.536.535,1.7.535,2.784,0,3.465-1.566,3.906-1.566a.362.362,0,0,1,.362.254A3.107,3.107,0,0,0,203.335,287.012Z" transform="translate(-189.083 -281.116)" fill="#2133c4"/>
        </g>
        <g id="Group_10" data-name="Group 10" transform="translate(29.775 29.833)">
          <path id="Path_8" data-name="Path 8" d="M293.641,253.427c-.332,0-2.169,2.452-3.352,2.452-.284,0-.52-.537-.52-.945,0-.225.141-.383.646-.492,2.72-.619,2.118-2.658,4.441-2.658a2.653,2.653,0,0,1,2.7,2.831c0,2.087-2.97,4.677-3.414,4.677-.363,0-.759-.52-.759-.869,0-.107.047-.25.365-.377a3.7,3.7,0,0,0,2.384-2.7.282.282,0,0,0-.284-.318c-.268,0-1.419,2.625-2.7,2.625-.886,0-1.787-.807-1.787-1.184,0-.635,2.563-1.8,2.563-2.689C293.927,253.442,293.768,253.427,293.641,253.427Zm1.706-.981c-.222,0-.459.175-.459.6a1,1,0,0,0,.571.868.986.986,0,0,0,.457.126c.458,0,.824-.126.824-.509C296.739,253.052,296.027,252.447,295.347,252.447Z" transform="translate(-289.769 -251.784)" fill="#2133c4"/>
        </g>
        <g id="Group_11" data-name="Group 11" transform="translate(0 7.573)">
          <path id="Path_9" data-name="Path 9" d="M145.47,144.169a.633.633,0,1,0,.635-.63A.637.637,0,0,0,145.47,144.169Zm-.82-1.424a.632.632,0,1,0,.632-.63A.636.636,0,0,0,144.65,142.745Zm-.569,4.334a1.509,1.509,0,0,0-1.122,1.329.931.931,0,0,0,.995.935,1.025,1.025,0,0,0,.614-.16,1.845,1.845,0,0,1-.6-1.376A2.129,2.129,0,0,1,144.081,147.079Zm-3.875.223a1.473,1.473,0,0,0-.013.237c0,.741.394,1.154.914,1.154a1.707,1.707,0,0,0,1.265-.76,3.291,3.291,0,0,1-.568.047A1.9,1.9,0,0,1,140.206,147.3Zm-.554,1.406c0,1.2.365,1.772,1.015,1.772a3.56,3.56,0,0,0,1.991-1.061,6.929,6.929,0,0,1-1.519.238A1.662,1.662,0,0,1,139.652,148.708Zm4.1-6.325a3.088,3.088,0,0,0,.141-.914c0-.76-.349-1.913-1.423-1.913a1.053,1.053,0,0,0-1.06,1.074C141.407,141.88,142.658,142.383,143.749,142.383Zm-1.345,3.985a1.307,1.307,0,0,1-1.091-1.234c0-.315.236-.709.413-.709.062,0,.095.047.109.157a1.8,1.8,0,0,0,1.077,1.438c.048.032.079.047.079.081C142.99,146.209,142.689,146.368,142.4,146.368Zm1.454-1.927c.112.148.414.331.414.445,0,.22-.129.5-.382.5-.554,0-.995-.839-.995-1.311,0-.3.172-.335.41-.335a.376.376,0,0,1,.236.062C143.685,143.885,143.685,144.2,143.857,144.44Zm-3.715,1.96a.365.365,0,0,0-.047.174.339.339,0,0,0,.3.3c.127,0,.206-.033.271-.033.377,0,.8.268,1.422.268a3.033,3.033,0,0,0,1.328-.378A3.3,3.3,0,0,0,145,144.519c0-.3-.243-.261-.442-.54s-.126-.517-.255-.648c-.073-.074-.3-.077-.584-.109a3.078,3.078,0,0,0-.349-.017,3.223,3.223,0,0,0-1.836.505C140.162,144.587,140.364,146.034,140.142,146.4Zm5.25-.633a3.009,3.009,0,0,0-.709,1.819,1.422,1.422,0,0,0,1.327,1.567,1.2,1.2,0,0,0,1.137-1.347A2.337,2.337,0,0,0,145.392,145.767Zm-3.383-3.035a1.91,1.91,0,0,1-1.027.346,1.188,1.188,0,0,1-1.218-1.216,1.331,1.331,0,0,1,.838-1.248,1.691,1.691,0,0,0-.014.268A1.837,1.837,0,0,0,142.009,142.732Z" transform="translate(-139.652 -139.555)" fill="#2133c4"/>
        </g>
        <g id="Group_12" data-name="Group 12" transform="translate(24.398 12.123)">
          <path id="Path_10" data-name="Path 10" d="M268.494,166.372a.664.664,0,1,0,.663-.662A.669.669,0,0,0,268.494,166.372Zm.047,1.993a.743.743,0,1,0,.745-.742A.744.744,0,0,0,268.541,168.364Zm-2.275,1.345a1.091,1.091,0,1,0,1.091-1.091A1.093,1.093,0,0,0,266.266,169.71Zm.584-2.231a.632.632,0,1,0,.633-.633A.634.634,0,0,0,266.849,167.478Zm-2.072,1.268a.632.632,0,1,0,.63-.634A.634.634,0,0,0,264.778,168.746Zm1.628-3.7a1.013,1.013,0,1,0,1.015-1.012A1.02,1.02,0,0,0,266.406,165.045Zm1.187-1.946a.6.6,0,1,0,.6-.6A.6.6,0,0,0,267.593,163.1Zm-2.858,1.518a.6.6,0,1,0,.6-.6A.6.6,0,0,0,264.734,164.617Zm-.082,2.055a.964.964,0,1,0,.964-.962A.958.958,0,0,0,264.652,166.672Zm-1.991,1.011a.9.9,0,1,0,.9-.9A.909.909,0,0,0,262.661,167.683Zm.535-2.229a.633.633,0,1,0,.633-.631A.637.637,0,0,0,263.2,165.454Zm5.551,4.87a.608.608,0,0,1,.6-.584.6.6,0,1,1-.6.584Z" transform="translate(-262.661 -162.497)" fill="#2133c4"/>
        </g>
        <g id="Group_13" data-name="Group 13" transform="translate(26.138 35.019)">
          <path id="Path_11" data-name="Path 11" d="M276.188,281.048c.078,0,.174.045.174.332a1.383,1.383,0,0,1-.725,1.167,3.031,3.031,0,0,1-1.725.506,3.744,3.744,0,0,0,.222-1.153,3.024,3.024,0,0,0-.031-.362h.207A3.579,3.579,0,0,0,276.188,281.048Zm.129-1.566a.591.591,0,0,0,.157-.459v-.363c0-.459-.7-.728-1.645-.728-1.154,0-1.771.523-1.771.743v.726c0,.3.7.6,1.55.6A2.658,2.658,0,0,0,276.316,279.482Zm.82.173a4.649,4.649,0,0,1-2.971,1.029,3.88,3.88,0,0,1-1.361-.27c-.158,0-.334.158-.508.363a3.573,3.573,0,0,0-.866,2.166,1.294,1.294,0,0,0,1.4,1.263c2.961,0,5.171-1.847,5.171-3.35C278.006,280,277.5,279.655,277.136,279.655Z" transform="translate(-271.431 -277.932)" fill="#2133c4"/>
        </g>
        <g id="Group_14" data-name="Group 14" transform="translate(23.826 18.814)">
          <path id="Path_12" data-name="Path 12" d="M268.346,200.864c0,.395.127.853.523.853.332,0,.616-.506.616-1.059,0-.631-.11-1.124-.11-1.375,0-.111.048-.158.11-.158.239.016.461.666.715.666.284,0,.707-.524.88-.524.048,0,.062.062.062.079,0,.236-.362.759-.362.964,0,.174.917.2.917.366,0,.237-.962.237-1.422.442-.442.189-.712.427-.712.743s.318.378.76.378a6.3,6.3,0,0,0,2.038-.568.072.072,0,0,1,.076.078c0,.159-.536.679-.536.919,0,.268.982.579.964.741-.014.047-.078.063-.188.063-.174,0-.442-.047-.65-.047a.367.367,0,0,0-.284.079c-.11.126.033.965-.189.965-.206,0-.744-1.866-1.959-1.866-.174,0-.3.142-.3.381a2.38,2.38,0,0,0,1.2,1.706c.265.172.708.349.708.444,0,.189-1.008.015-1.008.331,0,.287.125.715.125.965,0,.079-.015.174-.112.174-.188,0-.649-.868-.869-.868-.189,0-.6.52-.776.52a.087.087,0,0,1-.079-.094c0-.365.586-1.185.586-1.993,0-.379-.048-1.2-.507-1.2-.379,0-.807.6-1,1.2-.11.347-.031,1.694-.284,1.694s-.176-.9-.492-.9c-.233,0-.74.427-.914.427a.056.056,0,0,1-.062-.049c0-.189.456-.806.456-.933,0-.237-1.043-.268-1.043-.458,0-.113.41-.189.792-.255.8-.141,1.99-.724,1.99-1.547,0-.918-.885-1.312-1.468-1.692-.3-.189-.632-.348-.632-.473s.379-.126.539-.126c.236,0,.469-.017.469-.208,0-.143-.031-.427-.031-.647,0-.157.017-.284.082-.284.233,0,.568.773.725.773.252,0,.6-.63.838-.63.079,0,.111.048.111.189C268.647,199.629,268.346,200.293,268.346,200.864Zm-7.542-4.632c.174,1.343,1.98.664,1.98,2.29,0,.237-.063.586-.063.885,0,.35.031.65.3.65s.332-.189.332-.442-.064-.569-.064-.743a.613.613,0,0,1,.635-.681c.6,0,1.06.618,1.961.618-.206,1.013-2.3.741-2.3,1.849,0,.553.554.681.917.681.335,0,.445-.048.445-.331,0-.158-.031-.331-.031-.446a.125.125,0,0,1,.126-.126c.346,0,2.052,1.3,2.052,1.693,0,.362-1.8.728-2.322.728a.168.168,0,0,1-.191-.172c0-.112.268-.445.268-.635,0-.141-.237-.236-.869-.236-.3,0-.521.032-.521.269,0,.428.7.949.7,1.342,0,.317-.191.509-.7.509-.43,0-1.076-.335-1.076-.887,0-.444.458-.885.458-1.154,0-.079-.06-.2-.252-.2-.583,0-.743,1.548-2.816,1.721a1.585,1.585,0,0,0,.619-1.311c0-.332-.079-.6-.079-.964,0-.476.221-.714.535-.714.587,0,.87.823,1.252.823a.456.456,0,0,0,.427-.473c0-1.2-2.309-1.027-2.309-2.719A3.933,3.933,0,0,1,260.8,196.232Z" transform="translate(-259.775 -196.232)" fill="#2133c4"/>
        </g>
        <g id="Group_15" data-name="Group 15" transform="translate(20.46 26.64)">
          <path id="Path_13" data-name="Path 13" d="M250.2,238.136a.379.379,0,0,0,.383.4.434.434,0,0,0,.408-.475c0-.331-.3-.791-.584-.791-.129,0-.082.19-.113.4C250.281,237.82,250.2,238.009,250.2,238.136Zm-.823-2.1a2.923,2.923,0,0,1,2.563,2.736,1.429,1.429,0,0,1-1.39,1.547,1.336,1.336,0,0,1-1.389-1.437c0-.665.517-1.358.517-2.042A1.213,1.213,0,0,0,249.379,236.033Zm-2.1,2.688a.637.637,0,0,1,.206.476c0,.236-.112.489-.112.759a.7.7,0,0,0,.7.708.737.737,0,0,0,.746-.757A1.39,1.39,0,0,0,247.278,238.721Zm5.236-1.01a.948.948,0,0,1,.157.5c0,.444-.3.854-.3,1.311a.943.943,0,0,0,1,.951,1.093,1.093,0,0,0,1.089-1.139C254.457,238.5,253.7,237.789,252.514,237.71Zm-4.854-.839c.728.095.9.349.9.552,0,.349-.316.459-.617.459-.22,0-.472-.047-.743-.047a1.2,1.2,0,0,0-.981.411.537.537,0,0,1,.507.49c0,.917-2.546.158-2.546,2.513a3.015,3.015,0,0,0,3.257,2.609c1.015,0,1.664-.331,1.664-.712,0-.3-.54-.095-.54-.346,0-.11.189-.317.189-.492,0-.076-.062-.219-.189-.219a6.284,6.284,0,0,1-1.913.458c-.853,0-1.691-.489-1.691-1.153,0-.144.063-.223.157-.223s.223.065.335.065c.092,0,.109-.065.109-.239s0-.666.3-.666a4.717,4.717,0,0,0,3.054,1.111,4.963,4.963,0,0,0,2.654-.617,4.11,4.11,0,0,1-4.223,4.03A4.461,4.461,0,0,1,242.8,240.3a4.654,4.654,0,0,1,4.68-4.615c.694,0,1.282.236,1.282.536C248.766,236.635,247.737,236.382,247.66,236.871Z" transform="translate(-242.804 -235.686)" fill="#2133c4"/>
        </g>
        <g id="Group_16" data-name="Group 16" transform="translate(7.795 8.459)">
          <path id="Path_14" data-name="Path 14" d="M186.242,145.332c1.042,0,1.517.9,1.517,1.913,0,.441-.126,1.091-.332,1.091s-.172-.362-.205-.7c-.029-.425-.11-.52-.254-.52-.267,0-.441.63-.441,1.217,0,.365.062.774.346.774a.572.572,0,0,0,.4-.174,1.414,1.414,0,0,1-1.362,1.36c-1.389,0-1.911-1.627-2.07-2.578a3.839,3.839,0,0,1-3,1.534,1.779,1.779,0,0,1-1.881-1.851c0-.269.1-.964.427-.964.4,0,.05,1.3.824,1.3.189,0,.537-.16.725-.681a2.919,2.919,0,0,0,.177-.933c0-.427-.095-.7-.413-.7a1.245,1.245,0,0,0-.712.316,2.383,2.383,0,0,1,2.31-1.721c1.248,0,1.911,1.106,1.911,2.339a3,3,0,0,1-.045.537A2.756,2.756,0,0,1,186.242,145.332Zm-1.217,1.867c0-.269-.066-.332-.128-.332-.158,0-.332.189-.584.614.031.571.126.824.284.824C184.771,148.305,185.026,147.75,185.026,147.2Zm-2.168.649c.175,0,.4-.188.807-.649a4.115,4.115,0,0,0,.031-.635c0-.314-.126-.663-.315-.663-.476,0-.712,1.265-.712,1.6C182.669,147.686,182.763,147.848,182.858,147.848Zm2.578,1.405c.394,0,.838-1.517.838-2.467,0-.206-.031-.426-.126-.426-.334,0-.887,1.566-.887,2.416C185.26,149.111,185.341,149.253,185.435,149.253Zm-3.873-.869c.538,0,1.153-2.911,1.153-3.4,0-.125-.047-.222-.157-.222-.489,0-1.17,2.768-1.17,3.386C181.388,148.257,181.419,148.385,181.562,148.385Z" transform="translate(-178.952 -144.022)" fill="#2133c4"/>
        </g>
        <g id="Group_17" data-name="Group 17" transform="translate(7.273 14.021)">
          <path id="Path_15" data-name="Path 15" d="M181.178,172.065c-.681,0-.712.824-.712,2.484-.5-1.092-1.343-2.262-2.323-2.262-.666,0-.917.445-.917,1.215a3.139,3.139,0,0,0,.045.54.6.6,0,0,1,.649-.379,2.887,2.887,0,0,1,2.042,1.232,10.781,10.781,0,0,0-1.724-.221,1.975,1.975,0,0,0-.838.143,2.1,2.1,0,0,0-1.077,1.913,3.289,3.289,0,0,0,.048.523,3.4,3.4,0,0,1,2.972-1.789,2.7,2.7,0,0,1,.441.034,2.584,2.584,0,0,0-.629,1.737c-.015.253-.112.27-.287.27,0,.521.413,1.3.413,1.69a.334.334,0,0,1-.157.3c0,.694.694,1.2.694,1.642a.38.38,0,0,1-.08.254c.047.285.814.763.913,1,.123.291.259.341.336.341.271,0,.7-.315.7-.6a.376.376,0,0,0-.141-.252,2.357,2.357,0,0,1-.585-1.013.291.291,0,0,1-.3-.231c-.088-.328-.092-.938-.219-1.3-.2-.048-.3-.126-.3-.554,0-.205.125-1.012.125-1.3a.225.225,0,0,1-.222-.253c0-.505.5-.9.647-1.549a2.326,2.326,0,0,1,1.121,1.945,4.116,4.116,0,0,1-.109.9c.664-.332,1.661-.823,1.661-1.818,0-.586-.27-1.234-2.055-1.488a5.6,5.6,0,0,1,1.834-.314c1.01,0,1.6.314,1.721,1.027a1.954,1.954,0,0,0,.366-1.013,1.338,1.338,0,0,0-1.473-1.28,5.035,5.035,0,0,0-2.733,1.122c.41-.854.694-1.359,1.2-1.359a1.162,1.162,0,0,1,.236.032C182.267,172.746,181.557,172.065,181.178,172.065Z" transform="translate(-176.322 -172.065)" fill="#2133c4"/>
        </g>
        <g id="Group_18" data-name="Group 18" transform="translate(35.89 25.419)">
          <path id="Path_16" data-name="Path 16" d="M323.478,229.533c.79,0,1.422,1.031,1.422,2.231a4.968,4.968,0,0,1-1.672,3.619c-.018-2.131-2.628-1.453-2.628-3a1.05,1.05,0,0,1,1.045-1.108,1.594,1.594,0,0,1,1.186.427,1.407,1.407,0,0,1-.428-1.015A1.077,1.077,0,0,1,323.478,229.533Z" transform="translate(-320.599 -229.533)" fill="#2133c4"/>
        </g>
        <g id="Group_19" data-name="Group 19" transform="translate(24.24 7.779)">
          <path id="Path_17" data-name="Path 17" d="M264.657,142.065a1.173,1.173,0,0,0-.82-.318,1.28,1.28,0,0,0-1.266.933,1.473,1.473,0,0,1-.11-.537,1.528,1.528,0,0,1,1.632-1.547,2.774,2.774,0,0,1,1.546.535c.16,0,.318-.159.444-.159.172,0,.172.271.172.46a2.588,2.588,0,0,1-1,2.118,1.6,1.6,0,0,0-.787-.759.247.247,0,0,1-.159-.237A.64.64,0,0,1,264.657,142.065Zm-2.385,1.152a1.679,1.679,0,0,0,1.217.569c.177,0,.381-.045.493-.045.14,0,.237.061.237.171a1,1,0,0,1-.349.618,1.574,1.574,0,0,0,.618.109,1.858,1.858,0,0,0,1.925-1.991,2.1,2.1,0,0,1,.3,1.012,2.266,2.266,0,0,1-2.433,2.386,3.449,3.449,0,0,1-1.237-.249c-.3,0-.284.6-.49.583-.363-.063-.694-.871-.694-1.725A2.521,2.521,0,0,1,262.272,143.216Z" transform="translate(-261.862 -140.595)" fill="#2133c4"/>
        </g>
        <g id="Group_20" data-name="Group 20" transform="translate(0.13 0.014)">
          <path id="Path_18" data-name="Path 18" d="M151.3,101.778c0-.095-.476-.193-1.123-.193-1.029,0-.885.856-1.676.856-.823,0-.618-.887-1.66-.887-.632,0-1.217.111-1.217.256,0,.188.742.109.742.63,0,.554-1.6.711-1.6,1.042,0,.111.126.16.285.16.348,0,.9-.16,1.3-.16.221,0,.427.047.427.255,0,.394-.855,1.107-.855,1.423,0,.1.078.126.157.126.318,0,.855-.805,1.362-.805.838,0,.282,1.786.742,1.786.475,0,.27-1.757.946-1.757.556,0,.967,1.217,1.345,1.217a.178.178,0,0,0,.174-.188c0-.333-.473-1.013-.473-1.455a.39.39,0,0,1,.442-.4c.363,0,.855.225,1.122.225.095,0,.189-.031.189-.143,0-.38-1.406-.791-1.406-1.28S151.3,102,151.3,101.778Zm3.715,1.611c0,.286.995.9,1.454.9.267,0,.346-.363.346-.744,0-.473-.2-.49-.615-.49C155.673,103.057,155.01,103.2,155.01,103.39Zm1.643,3.129c0-.946-2.566-2.671-2.595-3.413a.29.29,0,0,1,.092-.2c.441-.464,2.265-.8,2.265-1.2,0-.205-.38-.205-.569-.205-1.47,0-3.619.54-3.619,1.059,0,.54,1.927,1.854,1.927,2.5,0,.172-.109.235-.286.235-.536,0-1.707-.647-2.26-.647-.251,0-.346.175-.346.427,0,.76.9,2.2.9,2.625,0,.045-.014.11-.079.11-.284,0-1.627-1.582-2.1-1.582-.175,0-.191.24-.191.587v.536c0,.365-.015.586-.189.586-.41,0-.6-1.153-1-1.153-.41,0-.492,2.055-.886,2.055-.458,0-.062-2.264-.506-2.264-.487,0-1.044,1.5-1.392,1.5-.126,0-.157-.126-.157-.236,0-.46.269-1.2.269-1.645,0-.22-.063-.347-.253-.347-.49,0-1.564.791-1.974.791-.065,0-.144-.033-.144-.1,0-.379,1.722-1.579,1.722-2.117,0-.521-2.371-.172-2.371-.775,0-.506,1.693-1.029,1.693-1.549,0-.457-2.008-.664-2.784-.664-.933,0-1.439.109-1.439.379,0,.413,2.12.538,2.12.9s-2.2,1.283-2.2,1.822c0,.473,3.1.03,3.1.521,0,.536-2.706,2.86-2.706,3.634,0,.176.129.255.3.255.82,0,2.954-1.567,3.54-1.567.2,0,.221.255.221.473,0,.413-.14,1.046-.14,1.5,0,.363.092.617.408.617.586,0,1.122-1,1.519-1,.506,0,.2,2.926.964,2.926.647,0,.919-3.163,1.327-3.163s.745.916,1.125.916c.473,0,.253-1.6.759-1.6.553,0,2.133,1.9,2.845,1.9.222,0,.3-.173.3-.4,0-.837-1.168-2.733-1.168-3.336,0-.158.047-.2.22-.2.618,0,2.421.851,3.274.851C156.48,106.884,156.654,106.727,156.654,106.518ZM142.22,105.6a3.023,3.023,0,0,1-1.629,1.376c-.157,0-.206-.188-.206-.363a1.419,1.419,0,0,1,.315-.9,1.757,1.757,0,0,1,1.044-.285C141.964,105.43,142.22,105.478,142.22,105.6Zm11.619,1.629c0,.554,1.977,3.257,2.357,3.257.315,0,.553-.553.553-1.027a.65.65,0,0,0-.095-.347,9.246,9.246,0,0,0-2.736-1.978A.09.09,0,0,0,153.839,107.232Z" transform="translate(-140.308 -101.445)" fill="#2133c4"/>
        </g>
        <g id="Group_21" data-name="Group 21" transform="translate(32.936 0.045)">
          <path id="Path_19" data-name="Path 19" d="M311.824,102.567a.395.395,0,1,0,.4-.394A.391.391,0,0,0,311.824,102.567Zm-2.578,3.495c0-1.122-2.685-1.409-2.685-1.661,0-.2,1.5-.552,2.274-.57-1.185-1.515-2.874-1.359-2.874-1.626a4.88,4.88,0,0,1,2.433-.476c.979,0,1.9.221,1.9.963,0,.413-.332.841-.332,1.473a.584.584,0,0,0,.63.65c.492,0,.6-.524.6-1.078,0-.457-.081-.8-.081-1.027a1.054,1.054,0,0,1,1.108-1.106c.536,0,.661.236,1.453.236a1.214,1.214,0,0,0-.582.935,17.284,17.284,0,0,1,.424,2.481c0,2.5-2.339,3.383-5.2,3.383a16.411,16.411,0,0,1-2.449-.189c-.128-.014-.158-.047-.158-.127,0-.2,1.122-.316,1.122-1.327a8.02,8.02,0,0,0-.126-.918.123.123,0,0,1,.126-.126c.237,0,.714.917,1.6.917A.752.752,0,0,0,309.246,106.062Zm2.672-1.6c0,1.406-1.026,2.484-2.879,2.784.206.014.4.014.587.014,2.162,0,2.956-.978,2.956-1.8A1.006,1.006,0,0,0,311.919,104.464Z" transform="translate(-305.708 -101.602)" fill="#2133c4"/>
        </g>
        <g id="Group_22" data-name="Group 22" transform="translate(31.212 12.251)">
          <path id="Path_20" data-name="Path 20" d="M303.862,174.178a9.409,9.409,0,0,1,1.088-2.2c-.52-.269-1.895-.838-1.895-1.772a2.442,2.442,0,0,1,1.642-1.942c.123,0,.158.107.158.316,0,.569-.27,1.487-.27,1.975,0,.443.284.871.537.871.27,0,1.012-.95,1.012-1.882a2.132,2.132,0,0,0-1.926-2.183,9.15,9.15,0,0,1-3.02.7c-3.4,0-4.173-3.37-4.173-4.839,0-.064.013-.081.031-.081a2.4,2.4,0,0,0,1.485.412c.555,0,1.061-.141,1.868-.141,1.892,0,2.734,1.31,3.9,2.987.709.442,2.4,1.154,2.4,3.162,0,1.772-1.885,2.752-2.34,4.649.727-.08,1.154-1.376,1.9-1.376.379,0,.552.3.552.776a3.432,3.432,0,0,1-1.153,2.385,1.047,1.047,0,0,0,.016-.236c0-.442-.175-1.075-.681-1.075-.789,0-1.04.854-1.485,1.565a7.534,7.534,0,0,0-2.181-3.953c-1.12-.9-3.051-.411-3.051-2.055,0-.442.283-1.073.283-1.58a.752.752,0,0,0-.126-.461c1.519.57.981,1.583,1.916,2.626.581.666,2.194,1.3,3.13,4.032a3.6,3.6,0,0,0,.028-.425c0-2.342-3.095-4.634-3.363-5.583,1.8.206,2.116.65,2.969,3.021A9.855,9.855,0,0,1,303.862,174.178Zm-.413-7.669c0-.331-.838-.362-.917-1.3-.015-.143-.063-.4-.24-.4-.283,0-.062.869-.379.869-.725,0-.963-1.423-1.232-1.423-.062,0-.137.048-.137.237,0,.174.031.283.031.49s-.05.348-.237.348c-.428,0-.807-.995-1.173-.995a.143.143,0,0,0-.157.124c0,.19.315.54.315.714,0,.379-1.029.173-1.029.492,0,.138.143.188.334.188.332,0,.854-.144,1.123-.144.159,0,.4.032.4.237,0,.224-.571.508-.571.713,0,.095.1.141.174.141.427,0,1.183-.743,1.721-.743.095,0,.331.049.331.191,0,.205-.536.568-.536.869,0,.077.047.174.141.174.284,0,.663-.743,1.2-.743.2,0,.506.078.664.078C303.4,166.635,303.449,166.557,303.449,166.509Z" transform="translate(-297.015 -163.141)" fill="#2133c4"/>
        </g>
        <g id="Group_23" data-name="Group 23" transform="translate(24.081)">
          <path id="Path_21" data-name="Path 21" d="M262.849,107.521c.255,0,.3.618.349.981.033.191.064.208.144.208.191,0,.49-.729.691-.729a6.188,6.188,0,0,0,2.453.838A3.6,3.6,0,0,0,270.2,105.1a3.517,3.517,0,0,0-3.842-3.636,11.611,11.611,0,0,0-2.247.521c-.25.015-.632-.616-.821-.616-.078,0-.157.155-.157.427,0,.173,0,.725-.191.725-.38,0-1.85-1.087-1.85-.694,0,.363.979,1.468.979,1.755s-.965.553-.965.745c0,.346,1.029.41,1.029.851s-1.074.793-1.074,1.122c0,.269,1.074.082,1.074.413s-.79,1.438-.79,1.755c0,.076.015.076.079.076C261.727,108.548,262.629,107.521,262.849,107.521Zm.459-2.59c0-.174-.618-.506-.618-.7,0-.03.031-.047.08-.047.174,0,.475.064.711.064.209,0,.237-.885.395-.885.11,0,.3.838.476.838.205,0,.582-.239.743-.239.03,0,.064.016.064.047,0,.11-.4.539-.4.665s.884.315.884.441c0,.158-.9.143-.9.285,0,.112.331.554.331.7,0,.031-.016.046-.048.046-.126,0-.613-.22-.756-.22-.177,0-.457.646-.6.646-.049,0-.078-.061-.078-.141l-.034-.632c0-.062-.03-.129-.109-.129-.192,0-.556-.013-.669-.013-.078,0-.11-.017-.11-.049C262.675,105.483,263.308,105.041,263.308,104.931Zm3.083,3c-1.108,0-1.834-.555-1.834-.838a.221.221,0,0,1,.22-.239c.348,0,1.106.537,1.362.537.062,0,.11-.028.11-.127,0-.283-.269-.757-.269-1,0-.061.047-.108.141-.108.427,0,1.06.175,1.395.175a.122.122,0,0,0,.14-.129c0-.348-1.029-1.029-1.029-1.234,0-.189,1.279-.475,1.279-.773,0-.318-1.737-.1-1.737-.4,0-.22.331-.6.331-.774,0-.079-.062-.111-.174-.111a12.459,12.459,0,0,1-1.217.3c-.158,0-.349-.032-.349-.252,0-.364.617-.759,1.583-.759,1.563,0,2.5,1.077,2.5,2.877A2.521,2.521,0,0,1,266.392,107.935Z" transform="translate(-261.064 -101.374)" fill="#2133c4"/>
        </g>
        <g id="Group_24" data-name="Group 24" transform="translate(13.661 32.743)">
          <path id="Path_22" data-name="Path 22" d="M213.57,267.623a.72.72,0,0,1-.174.461,1.176,1.176,0,0,0-.886-.476c-1.627,0-1.012,2.357-2.748,2.357a8.11,8.11,0,0,1-1.061-.1c-.11,0-.174.051-.174.144,0,.411.587,1.423,2.213,1.423s3.2-.995,3.2-2.23a1.644,1.644,0,0,0-.144-.647.465.465,0,0,1,.363-.158c.253,0,.4.287.634.287a.434.434,0,0,0,.443-.445.485.485,0,0,0-.3-.444.545.545,0,0,0,.22-.427.5.5,0,0,0-.506-.519.454.454,0,0,0-.349.154c-.028-.281-.188-.551-.489-.551a.407.407,0,0,0-.413.444C213.4,267.149,213.57,267.355,213.57,267.623Z" transform="translate(-208.526 -266.454)" fill="#2133c4"/>
        </g>
        <g id="Group_25" data-name="Group 25" transform="translate(8.887 29.516)">
          <path id="Path_23" data-name="Path 23" d="M190.024,255.186c-.475,0-1.186-.509-1.186-.791a.383.383,0,0,1,.394-.366c.4,0,1.107.492,1.107.9C190.339,255.044,190.26,255.186,190.024,255.186Zm-4.411-3.541c1.265.312,1.9.995,2.024,1.8a3.521,3.521,0,0,0,.584,1.724,2.734,2.734,0,0,0,1.851.835c.568,0,1.026-.186,1.026-.709a2.173,2.173,0,0,0-1.912-1.85c-.111,0-.253.017-.411.017a.763.763,0,0,1-.475-.143c-.253-.22-.332-1.407-.805-2.118a1.99,1.99,0,0,0-1.867-1.013c-.552,0-1.169.3-1.169.742C184.459,251.2,184.6,251.391,185.614,251.645Z" transform="translate(-184.459 -250.188)" fill="#2133c4"/>
        </g>
        <g id="Group_26" data-name="Group 26" transform="translate(12.728 18.56)">
          <path id="Path_24" data-name="Path 24" d="M209.075,205.431c0-.709-1.471-.725-1.471-1.8a2.466,2.466,0,0,1,.52-1.218,1.72,1.72,0,0,0,1.189,1.518,2.023,2.023,0,0,1,1.6,2.15,3.227,3.227,0,0,1-3.557,3.192,3.6,3.6,0,0,1-3.527-3.382c0-.427.112-.9.379-.9.237,0,.318.192.507.383a3.3,3.3,0,0,0,2.61.9C208.331,206.271,209.075,205.861,209.075,205.431Zm.062,1.138c-.543.25-.759.208-.759.763,0,.2-.048.472-.048.615,0,.189.031.3.253.3a2.024,2.024,0,0,0,1.47-1.786c0-.221-.126-.317-.269-.317C209.659,206.144,209.516,206.4,209.137,206.569Zm-5.044-7.981c0-1.013,2.4-1.55,2.4-2.8a2.041,2.041,0,0,0-.222-.839,2.543,2.543,0,0,1,1.454,1.867c0,1.089-1.138,1.595-1.138,2.275,0,.792,1.217.919,1.217,1.9,0,.807-1.155,1.74-1.155,2.782a1.579,1.579,0,0,0,1.44,1.581,3.687,3.687,0,0,1-.805.112,3.224,3.224,0,0,1-3.242-2.881,2.692,2.692,0,0,1,.837-1.942,2.274,2.274,0,0,0,1.17.631c.255,0,.366-.126.366-.315C206.419,200.372,204.094,199.836,204.094,198.587Z" transform="translate(-203.824 -194.95)" fill="#2133c4"/>
        </g>
        <g id="Group_27" data-name="Group 27" transform="translate(3.818 27.356)">
          <path id="Path_25" data-name="Path 25" d="M158.91,241.948a1.034,1.034,0,0,0,1.142.885,1.244,1.244,0,0,0,.52-.158.972.972,0,0,0,1.125.756,1,1,0,0,0,.914-1.118,1.065,1.065,0,0,0-.095-.365s.079-.01.136-.021a1.051,1.051,0,0,0,.909-1.118,1,1,0,0,0-1.631-.711,1.063,1.063,0,0,0-1.194-.786,1.022,1.022,0,0,0-.859,1.15.985.985,0,0,0,.079.315l-.157.023A1.067,1.067,0,0,0,158.91,241.948Zm2.955-.623a.6.6,0,1,1-.665-.53A.6.6,0,0,1,161.864,241.325Z" transform="translate(-158.902 -239.296)" fill="#2133c4"/>
        </g>
      </g>
    </g>
  </g>
</svg>
